<svg width="18" height="18" viewBox="0 0 18 18" fill="none" xmlns="http://www.w3.org/2000/svg">
<path d="M6.55895 11.3826C6.72979 11.5534 6.93097 11.6388 7.16249 11.6388C7.39322 11.6388 7.594 11.5534 7.76483 11.3826L9.69423 9.4532L9.69423 10.5385C9.69423 10.7596 9.77964 10.9555 9.95047 11.1263C10.1213 11.2972 10.3173 11.3826 10.5383 11.3826C10.7594 11.3826 10.9554 11.2972 11.1262 11.1263C11.297 10.9555 11.3824 10.7596 11.3824 10.5385L11.3824 7.40321C11.3824 7.28262 11.3599 7.1745 11.3149 7.07883C11.2695 6.98357 11.2066 6.89574 11.1262 6.81535C11.0458 6.73496 10.958 6.67205 10.8627 6.62663C10.7671 6.58161 10.6589 6.5591 10.5383 6.5591L7.40307 6.5591C7.18199 6.5591 6.98604 6.64451 6.8152 6.81535C6.64437 6.98618 6.55896 7.18213 6.55895 7.40321C6.55896 7.62429 6.64437 7.82024 6.8152 7.99107C6.98603 8.16191 7.18199 8.24732 7.40307 8.24732L8.48835 8.24732L6.55895 10.1767C6.38812 10.3476 6.30291 10.5485 6.30331 10.7797C6.30291 11.0108 6.38812 11.2118 6.55895 11.3826ZM2.94133 15.0002C2.10727 14.1662 1.48182 13.224 1.06499 12.1736C0.647762 11.1237 0.439145 10.0561 0.439145 8.97085C0.439146 7.88556 0.647763 6.81796 1.06499 5.76804C1.48183 4.71773 2.10727 3.77554 2.94133 2.94148C3.7754 2.10741 4.71759 1.48197 5.7679 1.06514C6.81782 0.647906 7.88542 0.43929 8.9707 0.43929C10.056 0.43929 11.1238 0.647705 12.1741 1.06454C13.224 1.48177 14.166 2.10742 15.0001 2.94148C15.8341 3.77554 16.4598 4.71753 16.877 5.76744C17.2938 6.81776 17.5023 7.88556 17.5023 8.97085C17.5023 10.0561 17.2936 11.1237 16.8764 12.1736C16.4596 13.224 15.8341 14.1662 15.0001 15.0002C14.166 15.8343 13.2238 16.4597 12.1735 16.8766C11.1236 17.2938 10.056 17.5024 8.9707 17.5024C7.88541 17.5024 6.81781 17.2938 5.7679 16.8766C4.71758 16.4597 3.7754 15.8343 2.94133 15.0002Z" fill="url(#paint0_linear_18_1696)"/>
<defs>
<linearGradient id="paint0_linear_18_1696" x1="2.94134" y1="2.94147" x2="15.0001" y2="15.0002" gradientUnits="userSpaceOnUse">
<stop stop-color="#48ABC8"/>
<stop offset="1" stop-color="#A2D2E1"/>
</linearGradient>
</defs>
</svg>
