<svg width="39" height="39" viewBox="0 0 39 39" fill="none" xmlns="http://www.w3.org/2000/svg">
<path d="M19.5 0C15.6433 0 11.8731 1.14365 8.66639 3.28634C5.45963 5.42903 2.96027 8.47451 1.48436 12.0377C0.00844905 15.6008 -0.377716 19.5216 0.374696 23.3043C1.12711 27.0869 2.9843 30.5615 5.71143 33.2886C8.43855 36.0157 11.9131 37.8729 15.6957 38.6253C19.4784 39.3777 23.3992 38.9916 26.9623 37.5156C30.5255 36.0397 33.571 33.5404 35.7137 30.3336C37.8563 27.1269 39 23.3567 39 19.5C38.9901 14.3313 36.9324 9.37718 33.2776 5.72236C29.6228 2.06755 24.6687 0.0099112 19.5 0ZM26.5688 24.4312C26.8504 24.7156 27.0084 25.0997 27.0084 25.5C27.0084 25.9003 26.8504 26.2844 26.5688 26.5687C26.282 26.846 25.8988 27.0009 25.5 27.0009C25.1012 27.0009 24.718 26.846 24.4313 26.5687L19.5 21.6187L14.5688 26.5687C14.282 26.846 13.8988 27.0009 13.5 27.0009C13.1012 27.0009 12.718 26.846 12.4313 26.5687C12.1496 26.2844 11.9916 25.9003 11.9916 25.5C11.9916 25.0997 12.1496 24.7156 12.4313 24.4312L17.3813 19.5L12.4313 14.5687C12.1921 14.2773 12.0698 13.9073 12.0883 13.5307C12.1068 13.1542 12.2647 12.7979 12.5313 12.5313C12.7979 12.2647 13.1542 12.1068 13.5307 12.0883C13.9073 12.0698 14.2773 12.1921 14.5688 12.4312L19.5 17.3812L24.4313 12.4312C24.7227 12.1921 25.0927 12.0698 25.4693 12.0883C25.8458 12.1068 26.2021 12.2647 26.4687 12.5313C26.7353 12.7979 26.8932 13.1542 26.9117 13.5307C26.9302 13.9073 26.8079 14.2773 26.5688 14.5687L21.6188 19.5L26.5688 24.4312Z" fill="#3F3F3F"/>
</svg>
