<svg width="60" height="62" viewBox="0 0 60 62" fill="none" xmlns="http://www.w3.org/2000/svg">
<path d="M26.9153 40.2494C32.4419 41.6779 36.1445 40.692 38.0273 37.7801C38.9955 36.2828 39.4309 34.3395 39.4263 32.1121C39.4217 29.8818 38.9763 27.3339 38.1487 24.5923C37.8772 23.6932 37.6104 22.8307 37.3534 21.9998C36.1717 18.1797 35.1965 15.0272 34.9279 12.0553C34.6068 8.50319 35.3018 5.22293 37.9685 1.4438C38.7656 0.713993 39.4332 0.489715 39.9356 0.500364L39.9356 0.50049C40.5763 0.514199 41.1045 0.918472 41.4203 1.51854C41.7346 2.11584 41.7861 2.81378 41.5697 3.31651C40.2463 5.35799 39.4719 7.1135 39.1136 8.80373C38.7525 10.5068 38.8206 12.1116 39.1377 13.8335C39.4238 15.3867 39.917 17.0551 40.4852 18.9774C40.5424 19.1709 40.6004 19.3669 40.659 19.5657C41.3022 21.7483 42.0303 24.2871 42.6884 27.4162L43.1777 27.3133L42.6884 27.4162C43.644 31.9594 43.3893 36.774 41.211 40.1581C39.0994 43.4387 35.0912 45.5051 28.2164 44.5285L26.9153 40.2494ZM59.1659 20.1981C56.556 22.5977 52.6982 24.6544 48.1403 24.5388C48.1346 24.5177 48.1286 24.4958 48.1221 24.4731C48.0358 24.1688 47.8819 23.7297 47.6082 23.1573C47.0711 22.0339 46.0731 20.3968 44.2199 18.2551C44.128 17.3893 43.9565 16.5777 43.7856 15.7682C43.7771 15.7283 43.7687 15.6884 43.7603 15.6485C43.6637 15.1907 43.5679 14.73 43.4843 14.2509C45.7015 16.5926 48.2469 19.7002 49.286 21.1878L49.4133 21.37L49.6339 21.3976C51.1198 21.5835 52.4406 20.9728 53.427 20.3731L53.9086 20.0803L53.5605 19.637C53.1011 19.052 52.6169 18.4196 52.1089 17.7561C49.8272 14.7758 47.0666 11.1699 43.925 8.43554C43.9524 7.70525 44.0415 7.20956 44.1959 6.84514C44.3127 6.56937 44.4739 6.35253 44.7088 6.16082C48.7822 9.78576 52.3759 14.0402 55.8685 18.4679L56.2014 18.89L56.5983 18.5274C57.1927 17.9843 57.7007 17.8222 58.0852 17.8297C58.4699 17.8371 58.8063 18.0153 59.0613 18.2997C59.3202 18.5886 59.477 18.9691 59.4977 19.329C59.518 19.6836 59.4077 19.986 59.1748 20.1902L59.1747 20.1901L59.1659 20.1981ZM21.0028 25.8733L31.3172 36.8228C30.9136 36.9176 30.383 36.9668 29.7737 36.935C28.8225 36.8854 27.7694 36.6422 26.8709 36.1567L21.2904 29.9612L20.4329 30.4134C20.9436 32.5242 21.5933 34.6542 22.2379 36.7675C22.3978 37.2917 22.5574 37.8149 22.7145 38.3366C23.5079 40.9711 24.24 43.5739 24.6541 46.1292C25.4797 51.2231 25.0352 56.0775 21.2962 60.5258C20.3438 61.6276 18.811 61.716 17.8344 61.1852C17.3565 60.9255 17.0618 60.5455 16.9958 60.1146C16.93 59.6855 17.0727 59.0834 17.7272 58.3439L18.0244 58.0081L17.7228 57.6762L6.98773 45.8644C7.0959 45.7781 7.22949 45.6788 7.38772 45.5738C7.8324 45.279 8.46714 44.9427 9.27586 44.7225C10.5331 46.1167 11.7596 47.5352 12.9414 48.9022C14.9525 51.2284 16.8344 53.4051 18.5194 55.0581L19.0726 55.6008L19.3391 54.8731C19.8264 53.5424 20.1502 52.2958 20.3434 51.1103L20.3827 50.8694L20.2168 50.6902L13.7357 43.688C14.6489 43.3412 15.4608 43.4303 16.4627 43.5439L19.6277 47.1933L20.6384 48.3587L20.5035 46.822C20.2699 44.1605 19.4576 41.7406 18.6249 39.2598C18.5764 39.1153 18.5278 38.9706 18.4793 38.8256C17.5942 36.1817 16.7109 33.4201 16.4161 30.0888C16.0558 22.5977 21.3181 16.8866 28.6787 16.9722C29.6487 16.9835 30.6578 17.0953 31.6981 17.318L33.0168 21.8053C32.2386 21.5622 31.4143 21.3183 30.6436 21.1426C30.1049 21.0198 29.5791 20.9272 29.1036 20.8927C28.636 20.8588 28.1754 20.8777 27.7891 21.0098L27.0793 21.2525L27.5765 21.8143L34.3978 29.521C34.9631 30.7766 34.9995 31.6377 34.8546 32.308C34.7474 32.8042 34.5439 33.2102 34.309 33.6422L24.2275 22.9164L23.9716 22.6441L23.638 22.8124C22.9771 23.1457 22.4366 23.4206 21.9979 23.7886C21.5392 24.1735 21.211 24.641 20.9089 25.3295L20.776 25.6325L21.0028 25.8733ZM14.4636 40.053C12.1438 39.9542 10.29 40.2621 8.63259 40.9412C6.83215 41.679 5.29972 42.8405 3.67699 44.3165C3.14624 44.707 2.63247 44.7916 2.18771 44.7071C1.72635 44.6196 1.29847 44.3416 0.985127 43.9454C0.355247 43.1489 0.26327 42.0048 1.1615 41.1924C3.65221 38.9554 6.4798 36.7984 11.6403 36.834L11.7085 36.8347C12.3556 36.8416 13.0406 36.8828 13.7674 36.963L14.4636 40.053Z" fill="#48ABC8" stroke="#48ABC8"/>
</svg>
