<svg width="59" height="59" viewBox="0 0 59 59" fill="none" xmlns="http://www.w3.org/2000/svg">
<path d="M36.148 7.18812L36.5016 7.54168L36.148 7.18813L23.2378 20.0983L22.8842 20.4519L23.2378 20.8054L38.1946 35.7622L38.5481 36.1157L38.9016 35.7623L51.8148 22.852L51.8149 22.852C53.8919 20.7748 55.0588 17.9576 55.0588 15.0201C55.0588 12.0826 53.8919 9.26534 51.8149 7.18814L51.6684 7.04168H51.6626C49.6008 5.05628 46.8477 3.94417 43.9799 3.94417C41.0424 3.94417 38.2252 5.11104 36.148 7.18812ZM26.3233 48.4443L26.3295 48.4381L26.3354 48.4317C26.8161 47.9158 27.0778 47.2335 27.0654 46.5285C27.0529 45.8235 26.7673 45.1509 26.2687 44.6523C25.7701 44.1537 25.0975 43.8681 24.3925 43.8556C23.6875 43.8432 23.0052 44.1049 22.4893 44.5856L22.4829 44.5915L22.4767 44.5977L18.2089 48.8626L18.2086 48.8629C17.4792 49.5931 16.4925 50.0081 15.4605 50.0189C14.4285 50.0298 13.4334 49.6355 12.6889 48.9207L12.6853 48.9174L12.6386 48.8734C12.638 48.8728 12.6374 48.8722 12.6367 48.8716C12.3794 48.6249 12.076 48.4312 11.744 48.3015C11.4111 48.1715 11.0558 48.1082 10.6985 48.1155C10.3412 48.1227 9.98883 48.2003 9.66149 48.3437C9.33416 48.4871 9.03827 48.6936 8.79074 48.9514L9.15138 49.2977L8.79074 48.9514C8.5432 49.2092 8.34887 49.5132 8.21882 49.8461C8.08878 50.179 8.02557 50.5342 8.03282 50.8915C8.04006 51.2488 8.11761 51.6012 8.26104 51.9285C8.40447 52.2559 8.61097 52.5518 8.86873 52.7993L8.87239 52.8028L8.91907 52.8467C8.9197 52.8473 8.92032 52.8479 8.92095 52.8485C10.6927 54.5491 13.0604 55.4876 15.5162 55.4624C17.9728 55.4373 20.3217 54.4498 22.0584 52.7121L21.7047 52.3587L22.0584 52.7121L26.3233 48.4443ZM33.7127 4.75283C36.4357 2.02979 40.129 0.5 43.9799 0.5C47.8309 0.5 51.5241 2.02979 54.2472 4.75283C56.9702 7.47587 58.5 11.1691 58.5 15.0201C58.5 18.871 56.9702 22.5643 54.2472 25.2873L25.2873 54.2472C22.5643 56.9702 18.871 58.5 15.0201 58.5C11.1691 58.5 7.47587 56.9702 4.75283 54.2472C2.02979 51.5241 0.5 47.8309 0.5 43.9799C0.5 40.129 2.02979 36.4357 4.75283 33.7127L33.7127 4.75283Z" fill="#48ABC8" stroke="#48ABC8"/>
</svg>
