<svg width="60" height="55" viewBox="0 0 60 55" fill="none" xmlns="http://www.w3.org/2000/svg">
<path d="M52.667 38.4268C51.815 37.5367 50.7298 36.9301 49.5483 36.6832L42.2644 35.1628C38.2719 34.3287 34.1272 34.9086 30.4856 36.8107L29.5152 37.3143C25.8735 39.2164 21.7288 39.7963 17.7364 38.9622L11.8439 37.7319C10.8589 37.5263 9.84053 37.5779 8.87917 37.8821C7.91781 38.1862 7.04319 38.7335 6.33289 39.4754M17.7943 2H42.2064L39.1549 5.1875V21.6732C39.1552 23.3639 39.7985 24.9851 40.9431 26.1804L56.2006 42.1179C60.0455 46.1341 57.3205 53 51.8827 53H8.11497C2.67719 53 -0.0447527 46.1341 3.80014 42.1179L19.0577 26.1804C20.2023 24.9851 20.8455 23.3639 20.8459 21.6732V5.1875L17.7943 2Z" stroke="#48ABC8" stroke-width="4" stroke-linecap="round" stroke-linejoin="round"/>
</svg>
