<svg width="44" height="58" viewBox="0 0 44 58" fill="none" xmlns="http://www.w3.org/2000/svg">
<path d="M21.5653 55.347L22 56.1121L22.4347 55.347L30.0655 41.9165C34.0124 42.7444 37.3553 44.1614 39.7191 45.937C42.1564 47.7679 43.5 49.9346 43.5 52.2V57.5H0.5V52.2C0.5 49.9346 1.84356 47.7679 4.28093 45.937C6.64473 44.1614 9.98759 42.7444 13.9345 41.9165L21.5653 55.347ZM14.8749 0.500036H14.8775H29.15C30.2721 0.500036 31.2589 1.41175 31.3746 2.65632L31.3747 2.65724L32.4503 14H11.5497L12.6252 2.65747C12.6253 2.65739 12.6253 2.65731 12.6253 2.65724C12.6826 2.05592 12.9501 1.50401 13.3683 1.10711C13.7858 0.710857 14.3233 0.497114 14.8749 0.500036ZM22.5 2.90003V2.40003H22H19.25H18.75V2.90003V5.30003H16.5H16V5.80003V8.70003V9.20003H16.5H18.75V11.6V12.1H19.25H22H22.5V11.6V9.20003H24.75H25.25V8.70003V5.80003V5.30003H24.75H22.5V2.90003ZM11.5 17.9H32.5V23.2C32.5 26.1522 31.3876 28.9785 29.4154 31.0584C27.4439 33.1374 24.7759 34.3 22 34.3C19.2241 34.3 16.5561 33.1374 14.5846 31.0584C12.6124 28.9785 11.5 26.1522 11.5 23.2V17.9Z" fill="#48ABC8" stroke="#48ABC8"/>
</svg>
