<svg width="63" height="59" viewBox="0 0 63 59" fill="none" xmlns="http://www.w3.org/2000/svg">
<path d="M31.5 21.3939C33.5062 21.3923 35.4928 21.792 37.3462 22.57C39.1997 23.348 40.8833 24.4889 42.301 25.9272C43.7186 27.3654 44.8424 29.0727 45.6084 30.9513C46.3745 32.8297 46.7678 34.8426 46.7662 36.875M31.5 21.3939C29.4938 21.3923 27.5072 21.792 25.6538 22.57C23.8003 23.348 22.1167 24.4889 20.699 25.9272C19.2814 27.3654 18.1576 29.0727 17.3916 30.9513C16.6255 32.8297 16.2322 34.8426 16.2338 36.875M31.5 21.3939C31.5001 21.3939 31.5003 21.3939 31.5004 21.3939L31.5 21.8939L31.4996 21.3939C31.4997 21.3939 31.4999 21.3939 31.5 21.3939ZM46.7662 36.875C46.7678 38.9074 46.3745 40.9203 45.6084 42.7987C44.8424 44.6773 43.7186 46.3846 42.301 47.8228C40.8833 49.2611 39.1997 50.402 37.3462 51.18C35.4928 51.958 33.5062 52.3577 31.5 52.3561M46.7662 36.875C46.7662 36.8749 46.7662 36.8747 46.7662 36.8746L46.2662 36.875L46.7662 36.8754C46.7662 36.8753 46.7662 36.8751 46.7662 36.875ZM31.5 52.3561C29.4938 52.3577 27.5072 51.958 25.6538 51.18C23.8003 50.402 22.1167 49.2611 20.699 47.8228C19.2814 46.3846 18.1576 44.6773 17.3916 42.7987C16.6255 40.9203 16.2322 38.9074 16.2338 36.875M31.5 52.3561C31.5001 52.3561 31.5003 52.3561 31.5004 52.3561L31.5 51.8561L31.4996 52.3561C31.4997 52.3561 31.4999 52.3561 31.5 52.3561ZM16.2338 36.875C16.2338 36.8751 16.2338 36.8753 16.2338 36.8754L16.7338 36.875L16.2338 36.8746C16.2338 36.8747 16.2338 36.8749 16.2338 36.875ZM29.0769 34.9167H29.5769V34.4167V30H33.4231V34.4167V34.9167H33.9231H38.2692V38.8333H33.9231H33.4231V39.3333V43.75H29.5769V39.3333V38.8333H29.0769H24.7308V34.9167H29.0769ZM17.4615 7.375C17.4615 3.60035 20.5277 0.5 24.2308 0.5H38.7692C42.4723 0.5 45.5385 3.60035 45.5385 7.375V11.7917H41.6923V7.375C41.6923 5.72165 40.4164 4.41667 38.7692 4.41667H24.2308C22.5837 4.41667 21.3077 5.72165 21.3077 7.375V11.7917H17.4615V7.375ZM2.48521 17.2611C3.75526 15.9725 5.47627 15.25 7.26923 15.25H55.7308C57.5237 15.25 59.2447 15.9725 60.5148 17.2611C61.7851 18.5499 62.5 20.2993 62.5 22.125V51.625C62.5 55.4267 59.4605 58.5 55.7308 58.5H7.26923C5.47627 58.5 3.75526 57.7775 2.48521 56.4889C1.21491 55.2001 0.5 53.4507 0.5 51.625V22.125C0.5 20.2993 1.21491 18.5499 2.48521 17.2611Z" fill="#48ABC8" stroke="#48ABC8"/>
</svg>
