<svg width="31" height="29" viewBox="0 0 31 29" fill="none" xmlns="http://www.w3.org/2000/svg">
<path d="M0.689275 11.5109C1.06838 11.5109 1.37855 11.2007 1.37855 10.8216C1.37855 9.126 2.39868 7.62338 3.97022 6.98925C4.17701 6.90653 4.33554 6.72732 4.38379 6.50675C4.82492 4.62503 6.47918 3.30852 8.40915 3.30852C8.78136 3.30852 9.16046 3.36366 9.53267 3.46705C9.81527 3.54977 10.1254 3.43948 10.2909 3.19134C11.0629 2.05404 12.3449 1.37855 13.7166 1.37855C14.137 1.37855 14.5575 1.44058 14.9573 1.56465C15.3226 1.68183 15.7086 1.47505 15.8189 1.11663C15.936 0.75131 15.7292 0.365316 15.3708 0.255032C14.8401 0.0896057 14.2818 0 13.7166 0C12.0485 0 10.4839 0.75131 9.44306 2.03336C9.09843 1.96443 8.75379 1.92997 8.40915 1.92997C5.95533 1.92997 3.83237 3.52219 3.1362 5.85194C1.22002 6.76179 0 8.67797 0 10.8216C0 11.2007 0.310174 11.5109 0.689275 11.5109Z" fill="currentColor"/>
<path d="M7.20292 20.2652C3.9909 20.2652 1.37855 18.1905 1.37855 15.6471C1.37855 14.9578 1.57155 14.2823 1.96443 13.6482C2.9501 12.0353 4.95588 11.0289 7.20292 11.0289C7.58202 11.0289 7.8922 10.7188 7.8922 10.3397C7.8922 9.96056 7.58202 9.65039 7.20292 9.65039C4.48029 9.65039 2.01957 10.9049 0.785773 12.9313C0.261924 13.786 0 14.6959 0 15.6471C0 18.9556 3.2327 21.6438 7.20292 21.6438C7.58202 21.6438 7.8922 21.3336 7.8922 20.9545C7.8922 20.5754 7.58202 20.2652 7.20292 20.2652Z" fill="currentColor"/>
<path d="M25.7309 4.1424C24.6556 2.19865 22.5258 0.964844 20.2305 0.964844C19.1207 0.964844 18.0248 1.25434 17.0598 1.79887C15.1643 2.87413 13.9925 4.85235 13.9925 6.95464C13.9925 7.22346 13.3377 7.71284 12.2694 7.71284C11.8903 7.71284 11.5801 8.02302 11.5801 8.40212C11.5801 8.78122 11.8903 9.09139 12.2694 9.09139C13.2619 9.09139 14.1166 8.78122 14.6818 8.29873C15.247 8.78122 16.1017 9.09139 17.0943 9.09139C17.4734 9.09139 17.7836 8.78122 17.7836 8.40212C17.7836 8.02302 17.4734 7.71284 17.0943 7.71284C16.0259 7.71284 15.3711 7.22346 15.3711 6.95464C15.3711 5.32106 16.2603 3.83912 17.7422 2.99131C18.5004 2.56396 19.362 2.3365 20.2305 2.3365C22.1122 2.3365 23.8492 3.39109 24.6418 5.02467C24.7314 5.21078 24.8969 5.34174 25.0968 5.38999C27.3714 5.96209 28.9567 7.98855 28.9567 10.3321C28.9567 10.5389 28.9429 10.7388 28.9222 10.9386C28.8809 11.3177 29.1497 11.6624 29.5288 11.7037C29.5564 11.7037 29.5839 11.7037 29.6115 11.7037C29.9561 11.7037 30.2525 11.4487 30.2939 11.0972C30.3215 10.8422 30.3421 10.5871 30.3421 10.3252C30.3421 7.45781 28.4673 4.95574 25.7447 4.12861L25.7309 4.1424Z" fill="currentColor"/>
<path d="M13.9235 14.6819C13.9235 13.4688 14.916 12.4762 16.1291 12.4762C16.5083 12.4762 16.8184 12.166 16.8184 11.7869C16.8184 11.4078 16.5083 11.0977 16.1291 11.0977C14.1509 11.0977 12.5449 12.7037 12.5449 14.6819C12.5449 15.061 12.8551 15.3712 13.2342 15.3712C13.6133 15.3712 13.9235 15.061 13.9235 14.6819Z" fill="currentColor"/>
<path d="M20.9539 15.3707C21.333 15.3707 21.6431 15.0606 21.6431 14.6815C21.6431 14.3024 21.333 13.9922 20.9539 13.9922C19.5064 13.9922 18.3346 15.1708 18.3346 16.6114C18.3346 19.1549 16.1565 21.2296 13.4752 21.2296C12.2552 21.2296 11.0904 20.8022 10.1943 20.0164C9.19484 19.1411 8.61585 17.9004 8.61585 16.6114C8.61585 16.2323 8.30568 15.9222 7.92658 15.9222C7.54748 15.9222 7.2373 16.2323 7.2373 16.6114C7.2373 18.3002 7.98172 19.92 9.29134 21.0573C10.4424 22.0567 11.9244 22.6081 13.4752 22.6081C16.9147 22.6081 19.7132 19.92 19.7132 16.6114C19.7132 15.9291 20.2715 15.3707 20.9539 15.3707Z" fill="currentColor"/>
<path d="M22.8837 9.65039C22.5046 9.65039 22.1944 9.96056 22.1944 10.3397C22.1944 10.7188 22.5046 11.0289 22.8837 11.0289C25.0135 11.0289 26.8815 12.3179 27.6397 14.303C27.8671 14.8958 27.9843 15.5092 27.9843 16.1296C27.9843 19.0866 26.0406 21.2302 23.3662 21.2302C23.3317 21.2302 19.968 21.2991 18.3 22.1332C18.0656 22.2503 17.9209 22.4916 17.9209 22.7466C17.9209 23.9184 19.0513 27.6611 19.327 28.1574C19.775 28.9501 20.4988 28.9501 21.9325 28.9501C22.2771 28.9501 25.2892 28.9156 26.0199 27.7232C26.2267 27.3854 26.2473 26.9788 26.0819 26.6686L25.2134 24.5525C25.0687 24.201 24.662 24.0356 24.3105 24.1803C23.9589 24.3251 23.7935 24.7248 23.9383 25.0833L24.7585 27.0753C24.4208 27.2889 23.3731 27.5784 21.9325 27.5784C21.5258 27.5784 20.678 27.5784 20.5333 27.4957C20.3334 27.0959 19.5407 24.4491 19.3408 23.1946C20.6918 22.7259 22.9526 22.6157 23.3662 22.6157C26.8401 22.6157 29.3629 19.893 29.3629 16.1365C29.3629 15.3507 29.2181 14.5649 28.9286 13.8136C27.9774 11.3253 25.5443 9.65039 22.8837 9.65039Z" fill="currentColor"/>
</svg>
