<svg width="112" height="107" viewBox="0 0 112 107" fill="none" xmlns="http://www.w3.org/2000/svg">
<path d="M2.86003 42.2665C4.25204 42.2665 5.39095 41.1276 5.39095 39.7355C5.39095 33.5095 9.13673 27.992 14.9072 25.6636C15.6665 25.3599 16.2486 24.7018 16.4258 23.8919C18.0456 16.9825 24.1198 12.1484 31.2064 12.1484C32.5731 12.1484 33.9651 12.3509 35.3318 12.7306C36.3695 13.0343 37.5084 12.6293 38.1158 11.7182C40.9505 7.54216 45.658 5.06185 50.6945 5.06185C52.2384 5.06185 53.7823 5.28964 55.2502 5.7452C56.5916 6.17546 58.0089 5.41618 58.4139 4.1001C58.8441 2.75871 58.0848 1.34139 56.7688 0.936443C54.8199 0.32902 52.7699 0 50.6945 0C44.5697 0 38.8245 2.75871 35.0028 7.46623C33.7373 7.21314 32.4719 7.08659 31.2064 7.08659C22.1963 7.08659 14.4011 12.933 11.8448 21.4876C4.80884 24.8284 0.329102 31.8644 0.329102 39.7355C0.329102 41.1276 1.46802 42.2665 2.86003 42.2665Z" fill="white"/>
<path d="M26.7773 74.402C14.9832 74.402 5.39095 66.784 5.39095 57.4448C5.39095 54.9139 6.09961 52.4336 7.54224 50.1051C11.1615 44.1828 18.5265 40.4876 26.7773 40.4876C28.1693 40.4876 29.3082 39.3487 29.3082 37.9567C29.3082 36.5647 28.1693 35.4258 26.7773 35.4258C16.7801 35.4258 7.74471 40.0321 3.21436 47.473C1.29085 50.6113 0.329102 53.9522 0.329102 57.4448C0.329102 69.5933 12.1991 79.4639 26.7773 79.4639C28.1693 79.4639 29.3082 78.325 29.3082 76.933C29.3082 75.541 28.1693 74.402 26.7773 74.402Z" fill="white"/>
<path d="M94.8095 15.2105C90.8613 8.07333 83.0407 3.54297 74.6127 3.54297C70.5379 3.54297 66.5138 4.60596 62.9705 6.60539C56.0104 10.5536 51.7079 17.8174 51.7079 25.5367C51.7079 26.5238 49.3035 28.3207 45.3805 28.3207C43.9885 28.3207 42.8496 29.4596 42.8496 30.8517C42.8496 32.2437 43.9885 33.3826 45.3805 33.3826C49.0251 33.3826 52.1634 32.2437 54.2388 30.472C56.3141 32.2437 59.4525 33.3826 63.097 33.3826C64.489 33.3826 65.6279 32.2437 65.6279 30.8517C65.6279 29.4596 64.489 28.3207 63.097 28.3207C59.1741 28.3207 56.7697 26.5238 56.7697 25.5367C56.7697 19.5384 60.0346 14.0969 65.4761 10.9839C68.2601 9.41472 71.4238 8.57951 74.6127 8.57951C81.5222 8.57951 87.9001 12.4518 90.8107 18.4501C91.1397 19.1335 91.7471 19.6143 92.4811 19.7915C100.833 21.8922 106.654 29.3331 106.654 37.9382C106.654 38.6975 106.604 39.4315 106.528 40.1655C106.376 41.5575 107.363 42.8229 108.755 42.9748C108.856 42.9748 108.957 42.9748 109.059 42.9748C110.324 42.9748 111.412 42.0383 111.564 40.7476C111.665 39.8111 111.741 38.8747 111.741 37.9129C111.741 27.3843 104.857 18.197 94.8601 15.1599L94.8095 15.2105Z" fill="white"/>
<path d="M51.4535 53.9108C51.4535 49.4564 55.098 45.8119 59.5524 45.8119C60.9444 45.8119 62.0833 44.6729 62.0833 43.2809C62.0833 41.8889 60.9444 40.75 59.5524 40.75C52.2887 40.75 46.3916 46.6471 46.3916 53.9108C46.3916 55.3028 47.5305 56.4417 48.9225 56.4417C50.3145 56.4417 51.4535 55.3028 51.4535 53.9108Z" fill="white"/>
<path d="M77.2687 56.4408C78.6608 56.4408 79.7997 55.3018 79.7997 53.9098C79.7997 52.5178 78.6608 51.3789 77.2687 51.3789C71.9538 51.3789 67.6512 55.7068 67.6512 60.9964C67.6512 70.3355 59.6535 77.9536 49.8082 77.9536C45.3285 77.9536 41.0512 76.3845 37.761 73.4992C34.0911 70.2849 31.9652 65.7293 31.9652 60.9964C31.9652 59.6044 30.8263 58.4655 29.4342 58.4655C28.0422 58.4655 26.9033 59.6044 26.9033 60.9964C26.9033 67.1972 29.6367 73.1449 34.4455 77.3209C38.6721 80.9907 44.1136 83.0155 49.8082 83.0155C62.4375 83.0155 72.7131 73.1449 72.7131 60.9964C72.7131 58.4908 74.7631 56.4408 77.2687 56.4408Z" fill="white"/>
<path d="M84.3555 35.4258C82.9635 35.4258 81.8246 36.5647 81.8246 37.9567C81.8246 39.3487 82.9635 40.4876 84.3555 40.4876C92.176 40.4876 99.0349 45.2205 101.819 52.5095C102.654 54.6861 103.084 56.9387 103.084 59.2165C103.084 70.0742 95.9471 77.9453 86.1271 77.9453C86.0006 77.9453 73.6497 78.1984 67.5248 81.2609C66.6643 81.6911 66.1328 82.5769 66.1328 83.5134C66.1328 87.816 70.2835 101.559 71.2959 103.381C72.941 106.292 75.5985 106.292 80.8628 106.292C82.1283 106.292 93.1884 106.165 95.8712 101.787C96.6305 100.547 96.7064 99.0533 96.099 97.9143L92.91 90.1444C92.3785 88.8536 90.8853 88.2462 89.5945 88.7777C88.3037 89.3092 87.6963 90.7771 88.2278 92.0932L91.2396 99.4076C89.9994 100.192 86.1524 101.255 80.8628 101.255C79.3696 101.255 76.2565 101.255 75.725 100.951C74.9911 99.4835 72.0805 89.7648 71.3465 85.1585C76.3071 83.4375 84.6086 83.0325 86.1271 83.0325C98.883 83.0325 108.146 73.0353 108.146 59.2418C108.146 56.3565 107.615 53.4713 106.552 50.7126C103.059 41.5759 94.1249 35.4258 84.3555 35.4258Z" fill="white"/>
</svg>
