<svg width="22" height="29" viewBox="0 0 22 29" fill="none" xmlns="http://www.w3.org/2000/svg">
<path d="M5.16656 16.1455C5.52176 16.1455 5.81238 15.8549 5.81238 15.4997C5.81238 15.1445 5.52176 14.8538 5.16656 14.8538C4.52074 14.8538 3.78451 14.6213 3.08703 14.2209C3.9718 13.517 4.59824 12.5806 5.03094 11.5795C5.1601 12.6387 5.58634 13.6397 6.27091 14.4793L6.40653 14.6472C7.5238 16.0098 9.19001 16.7913 10.9725 16.7913C12.7549 16.7913 14.4211 16.0098 15.5384 14.6472L15.6805 14.4793C16.3715 13.6397 16.7978 12.6258 16.9205 11.586C17.3532 12.587 17.9796 13.517 18.8644 14.2209C18.1669 14.6278 17.4307 14.8538 16.7848 14.8538C16.4296 14.8538 16.139 15.1445 16.139 15.4997C16.139 15.8549 16.4296 16.1455 16.7848 16.1455C17.9667 16.1455 19.2971 15.6224 20.4208 14.7118C20.5887 14.5761 20.6791 14.363 20.6598 14.1499C20.6404 13.9368 20.5177 13.743 20.3239 13.6397C17.5727 12.1349 17.4307 8.46668 17.4307 7.74983V3.22909C17.4307 1.44663 15.984 0 14.2016 0H7.74984C5.96738 0 4.52074 1.44663 4.52074 3.22909V7.74983C4.52074 8.46668 4.37866 12.1349 1.62748 13.6397C1.44019 13.743 1.31102 13.9368 1.29165 14.1499C1.27227 14.363 1.36269 14.5761 1.5306 14.7118C2.65433 15.6224 3.97826 16.1455 5.16656 16.1455ZM12.0187 10.4558C11.3277 10.3719 10.6237 10.3719 9.9327 10.4558L6.22571 10.9208C6.11592 10.2104 5.90925 8.77022 5.83821 7.74983H16.1132C16.0357 8.76376 15.829 10.1975 15.7257 10.9208L12.0187 10.4558ZM14.6859 13.6526L14.5439 13.8205C13.672 14.8861 12.3739 15.4932 10.9725 15.4932C9.57105 15.4932 8.27295 14.8861 7.4011 13.8205L7.26547 13.6526C6.91027 13.2199 6.65195 12.7226 6.48403 12.1866L10.0942 11.7345C10.6754 11.6635 11.2696 11.6635 11.8572 11.7345L15.4674 12.1866C15.2995 12.7162 15.0411 13.2135 14.6859 13.6526ZM5.81238 3.22909C5.81238 2.16349 6.68424 1.29164 7.74984 1.29164H14.208C15.2736 1.29164 16.1455 2.16349 16.1455 3.22909V6.45819H5.81238V3.22909Z" fill="currentColor"/>
<path d="M9.04133 9.68812C9.398 9.68812 9.68715 9.39898 9.68715 9.0423C9.68715 8.68563 9.398 8.39648 9.04133 8.39648C8.68465 8.39648 8.39551 8.68563 8.39551 9.0423C8.39551 9.39898 8.68465 9.68812 9.04133 9.68812Z" fill="currentColor"/>
<path d="M12.9163 9.68812C13.273 9.68812 13.5621 9.39898 13.5621 9.0423C13.5621 8.68563 13.273 8.39648 12.9163 8.39648C12.5597 8.39648 12.2705 8.68563 12.2705 9.0423C12.2705 9.39898 12.5597 9.68812 12.9163 9.68812Z" fill="currentColor"/>
<path d="M12.2706 3.22914H11.6248V2.58332C11.6248 2.22812 11.3342 1.9375 10.979 1.9375C10.6238 1.9375 10.3331 2.22812 10.3331 2.58332V3.22914H9.68732C9.33212 3.22914 9.0415 3.51976 9.0415 3.87496C9.0415 4.23016 9.33212 4.52078 9.68732 4.52078H10.3331V5.16659C10.3331 5.52179 10.6238 5.81241 10.979 5.81241C11.3342 5.81241 11.6248 5.52179 11.6248 5.16659V4.52078H12.2706C12.6258 4.52078 12.9164 4.23016 12.9164 3.87496C12.9164 3.51976 12.6258 3.22914 12.2706 3.22914Z" fill="currentColor"/>
<path d="M19.3616 18.9733L14.983 18.0949C14.7957 18.0562 14.5955 18.1079 14.447 18.2306C14.2984 18.3533 14.208 18.5341 14.208 18.7279V20.6653C14.208 21.3757 13.6268 21.9569 12.9164 21.9569H9.04146C8.33106 21.9569 7.74983 21.3757 7.74983 20.6653C7.74983 20.3101 7.45921 20.0195 7.10401 20.0195C6.74881 20.0195 6.45819 20.3101 6.45819 20.6653C6.45819 22.0926 7.6142 23.2486 9.04146 23.2486H12.9164C14.3436 23.2486 15.4997 22.0926 15.4997 20.6653V19.5157L19.1098 20.2391C20.0139 20.4199 20.6662 21.2207 20.6662 22.1378V26.4777C20.6662 26.8329 20.3756 27.1235 20.0204 27.1235H1.93746C1.58226 27.1235 1.29164 26.8329 1.29164 26.4777V22.1378C1.29164 21.2143 1.94391 20.4199 2.84806 20.2391L7.16859 19.3737H12.2706C12.6258 19.3737 12.9164 19.0831 12.9164 18.7279C12.9164 18.3726 12.6258 18.082 12.2706 18.082H7.10401C7.0588 18.082 7.02005 18.082 6.97484 18.0949L2.59619 18.9733C1.09143 19.2768 0 20.6072 0 22.1378V26.4777C0 27.5433 0.871855 28.4151 1.93746 28.4151H20.0204C21.086 28.4151 21.9578 27.5433 21.9578 26.4777V22.1378C21.9578 20.6007 20.8664 19.2703 19.3616 18.9733Z" fill="currentColor"/>
<path d="M18.7286 24.5416C19.0838 24.5416 19.3744 24.251 19.3744 23.8958C19.3744 23.5406 19.0838 23.25 18.7286 23.25H16.1453C15.7901 23.25 15.4995 23.5406 15.4995 23.8958C15.4995 24.251 15.7901 24.5416 16.1453 24.5416H18.7286Z" fill="currentColor"/>
</svg>
