<svg width="21" height="29" viewBox="0 0 21 29" fill="none" xmlns="http://www.w3.org/2000/svg">
<path d="M19.6775 10.8748L16.7327 7.49808C16.4207 7.13885 16.2517 6.68165 16.2517 6.21139V5.12064C17.0058 4.85285 17.5518 4.12133 17.5518 3.27224V1.95943C17.5518 0.881743 16.6742 0 15.6016 0H5.20054C4.12793 0 3.25034 0.881743 3.25034 1.95943V3.26571C3.25034 4.3434 4.12793 5.22514 5.20054 5.22514H13.0014C13.3589 5.22514 13.6514 4.93123 13.6514 4.572C13.6514 4.21277 13.3589 3.91886 13.0014 3.91886H5.20054C4.843 3.91886 4.55047 3.62494 4.55047 3.26571V1.95943C4.55047 1.6002 4.843 1.30629 5.20054 1.30629H15.6016C15.9592 1.30629 16.2517 1.6002 16.2517 1.95943V3.26571C16.2517 3.62494 15.9592 3.91886 15.6016 3.91886C15.2441 3.91886 14.9516 4.21277 14.9516 4.572V6.20486C14.9516 6.99516 15.2376 7.75934 15.7576 8.35369L18.7024 11.7304C19.2225 12.3248 19.5085 13.089 19.5085 13.8793V26.7789C19.5085 27.1381 19.216 27.432 18.8585 27.432H1.9502C1.59267 27.432 1.30014 27.1381 1.30014 26.7789V13.8793C1.30014 13.089 1.58616 12.3248 2.10622 11.7304L5.69459 7.61564C5.92862 7.34132 5.90261 6.92984 5.63609 6.69471C5.36306 6.45958 4.95352 6.48571 4.71949 6.7535L1.12462 10.8748C0.396541 11.7108 0 12.7755 0 13.8858V26.7854C0 27.8631 0.877591 28.7448 1.9502 28.7448H18.852C19.9246 28.7448 20.8022 27.8631 20.8022 26.7854V13.8793C20.8022 12.7689 20.3991 11.7043 19.6775 10.8683V10.8748Z" fill="currentColor"/>
<path d="M2.64746 13.8897V24.3118C2.64746 24.67 2.93822 24.9631 3.29359 24.9631H17.5084C17.8638 24.9631 18.1545 24.67 18.1545 24.3118V13.8897C18.1545 13.5314 17.8638 13.2383 17.5084 13.2383H3.29359C2.93822 13.2383 2.64746 13.5314 2.64746 13.8897ZM3.93972 14.541H16.8623V23.6604H3.93972V14.541Z" fill="currentColor"/>
<path d="M13.3137 18.4567H11.2713V16.5277C11.2713 16.1741 10.965 15.8848 10.5905 15.8848C10.2161 15.8848 9.90972 16.1741 9.90972 16.5277V18.4567H7.86732C7.49288 18.4567 7.18652 18.746 7.18652 19.0996C7.18652 19.4533 7.49288 19.7426 7.86732 19.7426H9.90972V21.6715C9.90972 22.0252 10.2161 22.3145 10.5905 22.3145C10.965 22.3145 11.2713 22.0252 11.2713 21.6715V19.7426H13.3137C13.6881 19.7426 13.9945 19.4533 13.9945 19.0996C13.9945 18.746 13.6881 18.4567 13.3137 18.4567Z" fill="currentColor"/>
</svg>
