<svg width="96" height="132" viewBox="0 0 96 132" fill="none" xmlns="http://www.w3.org/2000/svg">
<path d="M90.8631 49.67L77.4129 34.247C75.9878 32.6062 75.2158 30.518 75.2158 28.3701V23.3882C78.66 22.1651 81.1541 18.8239 81.1541 14.9458V8.94955C81.1541 4.0273 77.1457 0 72.2466 0H24.7404C19.8413 0 15.833 4.0273 15.833 8.94955V14.9159C15.833 19.8382 19.8413 23.8655 24.7404 23.8655H60.3701C62.0031 23.8655 63.3392 22.523 63.3392 20.8823C63.3392 19.2415 62.0031 17.8991 60.3701 17.8991H24.7404C23.1074 17.8991 21.7713 16.5567 21.7713 14.9159V8.94955C21.7713 7.3088 23.1074 5.96637 24.7404 5.96637H72.2466C73.8797 5.96637 75.2158 7.3088 75.2158 8.94955V14.9159C75.2158 16.5567 73.8797 17.8991 72.2466 17.8991C70.6136 17.8991 69.2775 19.2415 69.2775 20.8823V28.3403C69.2775 31.9499 70.5839 35.4402 72.9592 38.1549L86.4094 53.578C88.7848 56.2927 90.0912 59.783 90.0912 63.3927V122.311C90.0912 123.951 88.7551 125.294 87.122 125.294H9.89472C8.2617 125.294 6.92558 123.951 6.92558 122.311V63.3927C6.92558 59.783 8.232 56.2927 10.6073 53.578L26.997 34.7839C28.0659 33.531 27.9471 31.6516 26.7297 30.5776C25.4827 29.5037 23.6121 29.623 22.5433 30.8461L6.12392 49.67C2.79848 53.4885 0.987305 58.3511 0.987305 63.4225V122.34C0.987305 127.263 4.99564 131.29 9.89472 131.29H87.0923C91.9914 131.29 95.9998 127.263 95.9998 122.34V63.3927C95.9998 58.3213 94.1589 53.4587 90.8631 49.6402V49.67Z" fill="white"/>
<path d="M13.0791 63.4439V111.046C13.0791 112.682 14.4071 114.021 16.0302 114.021H80.9554C82.5786 114.021 83.9066 112.682 83.9066 111.046V63.4439C83.9066 61.8076 82.5786 60.4688 80.9554 60.4688H16.0302C14.4071 60.4688 13.0791 61.8076 13.0791 63.4439ZM18.9814 66.419H78.0043V108.071H18.9814V66.419Z" fill="white"/>
<path d="M61.797 84.3056H52.4685V75.4953C52.4685 73.8801 51.0692 72.5586 49.359 72.5586C47.6488 72.5586 46.2495 73.8801 46.2495 75.4953V84.3056H36.921C35.2108 84.3056 33.8115 85.6271 33.8115 87.2423C33.8115 88.8575 35.2108 90.1791 36.921 90.1791H46.2495V98.9893C46.2495 100.605 47.6488 101.926 49.359 101.926C51.0692 101.926 52.4685 100.605 52.4685 98.9893V90.1791H61.797C63.5072 90.1791 64.9065 88.8575 64.9065 87.2423C64.9065 85.6271 63.5072 84.3056 61.797 84.3056Z" fill="white"/>
</svg>
