<svg width="93" height="119" viewBox="0 0 93 119" fill="none" xmlns="http://www.w3.org/2000/svg">
<path d="M22.1688 67.5853C23.6557 67.5853 24.8722 66.3688 24.8722 64.8819C24.8722 63.3951 23.6557 62.1785 22.1688 62.1785C19.4654 62.1785 16.3835 61.2053 13.4638 59.5292C17.1675 56.5825 19.7898 52.6625 21.6011 48.4722C22.1418 52.9058 23.926 57.0961 26.7917 60.6105L27.3594 61.3134C32.0363 67.0176 39.0111 70.2888 46.4725 70.2888C53.9339 70.2888 60.9087 67.0176 65.5856 61.3134L66.1804 60.6105C69.073 57.0961 70.8573 52.8517 71.3709 48.4992C73.1822 52.6895 75.8045 56.5825 79.5082 59.5292C76.5885 61.2323 73.5066 62.1785 70.8032 62.1785C69.3164 62.1785 68.0998 63.3951 68.0998 64.8819C68.0998 66.3688 69.3164 67.5853 70.8032 67.5853C75.7505 67.5853 81.3195 65.3956 86.0235 61.5838C86.7263 61.016 87.1048 60.1239 87.0237 59.2318C86.9426 58.3397 86.429 57.5286 85.6179 57.0961C74.1014 50.7971 73.5066 35.4418 73.5066 32.441V13.5171C73.5066 6.05565 67.451 0 59.9896 0H32.9825C25.521 0 19.4654 6.05565 19.4654 13.5171V32.441C19.4654 35.4418 18.8706 50.7971 7.3541 57.0961C6.57011 57.5286 6.02943 58.3397 5.94833 59.2318C5.86723 60.1239 6.2457 61.016 6.94859 61.5838C11.6525 65.3956 17.1945 67.5853 22.1688 67.5853ZM50.852 43.7683C47.9594 43.4168 45.0127 43.4168 42.12 43.7683L26.6024 45.7147C26.1428 42.741 25.2777 36.7124 24.9804 32.441H67.9917C67.6673 36.6853 66.8022 42.6869 66.3696 45.7147L50.852 43.7683ZM62.0171 57.1502L61.4224 57.8531C57.7728 62.3137 52.3389 64.8549 46.4725 64.8549C40.6061 64.8549 35.1722 62.3137 31.5226 57.8531L30.9549 57.1502C29.468 55.3389 28.3867 53.2573 27.6838 51.0134L42.7959 49.121C45.2289 48.8237 47.7161 48.8237 50.1762 49.121L65.2883 51.0134C64.5854 53.2302 63.504 55.3118 62.0171 57.1502ZM24.8722 13.5171C24.8722 9.05644 28.5218 5.40683 32.9825 5.40683H60.0166C64.4772 5.40683 68.1269 9.05644 68.1269 13.5171V27.0341H24.8722V13.5171Z" fill="white"/>
<path d="M38.389 40.5475C39.882 40.5475 41.0924 39.3371 41.0924 37.844C41.0924 36.351 39.882 35.1406 38.389 35.1406C36.8959 35.1406 35.6855 36.351 35.6855 37.844C35.6855 39.3371 36.8959 40.5475 38.389 40.5475Z" fill="white"/>
<path d="M54.6097 40.5475C56.1027 40.5475 57.3131 39.3371 57.3131 37.844C57.3131 36.351 56.1027 35.1406 54.6097 35.1406C53.1166 35.1406 51.9062 36.351 51.9062 37.844C51.9062 39.3371 53.1166 40.5475 54.6097 40.5475Z" fill="white"/>
<path d="M51.9087 13.5162H49.2053V10.8128C49.2053 9.32591 47.9887 8.10938 46.5018 8.10938C45.015 8.10938 43.7984 9.32591 43.7984 10.8128V13.5162H41.095C39.6081 13.5162 38.3916 14.7327 38.3916 16.2196C38.3916 17.7065 39.6081 18.923 41.095 18.923H43.7984V21.6264C43.7984 23.1133 45.015 24.3299 46.5018 24.3299C47.9887 24.3299 49.2053 23.1133 49.2053 21.6264V18.923H51.9087C53.3955 18.923 54.6121 17.7065 54.6121 16.2196C54.6121 14.7327 53.3955 13.5162 51.9087 13.5162Z" fill="white"/>
<path d="M81.5903 79.4221L63.2612 75.7455C62.4772 75.5833 61.6391 75.7995 61.0174 76.3132C60.3956 76.8268 60.0171 77.5838 60.0171 78.3948V86.5051C60.0171 89.4788 57.584 91.9119 54.6103 91.9119H38.3898C35.416 91.9119 32.983 89.4788 32.983 86.5051C32.983 85.0182 31.7664 83.8016 30.2795 83.8016C28.7927 83.8016 27.5761 85.0182 27.5761 86.5051C27.5761 92.4796 32.4152 97.3187 38.3898 97.3187H54.6103C60.5848 97.3187 65.4239 92.4796 65.4239 86.5051V81.693L80.536 84.7208C84.3208 85.4778 87.0512 88.83 87.0512 92.6688V110.836C87.0512 112.323 85.8347 113.539 84.3478 113.539H8.65223C7.16536 113.539 5.94882 112.323 5.94882 110.836V92.6688C5.94882 88.803 8.67927 85.4778 12.464 84.7208L30.5499 81.0982H51.9069C53.3937 81.0982 54.6103 79.8817 54.6103 78.3948C54.6103 76.9079 53.3937 75.6914 51.9069 75.6914H30.2795C30.0903 75.6914 29.9281 75.6914 29.7389 75.7455L11.4097 79.4221C5.11076 80.6927 0.541992 86.2618 0.541992 92.6688V110.836C0.541992 115.296 4.1916 118.946 8.65223 118.946H84.3478C88.8084 118.946 92.4581 115.296 92.4581 110.836V92.6688C92.4581 86.2347 87.8893 80.6657 81.5903 79.4221Z" fill="white"/>
<path d="M78.9429 102.731C80.4297 102.731 81.6463 101.515 81.6463 100.028C81.6463 98.5408 80.4297 97.3242 78.9429 97.3242H68.1292C66.6423 97.3242 65.4258 98.5408 65.4258 100.028C65.4258 101.515 66.6423 102.731 68.1292 102.731H78.9429Z" fill="white"/>
</svg>
