<svg width="94" height="129" viewBox="0 0 94 129" fill="none" xmlns="http://www.w3.org/2000/svg">
<path d="M61.1845 61.1863H78.6651C80.2675 61.1863 81.5785 59.8753 81.5785 58.2729C81.5785 56.6705 80.2675 55.3595 78.6651 55.3595H63.0782L55.9695 39.5978C55.5033 38.549 54.4545 37.8789 53.3183 37.8789C52.182 37.8789 51.1332 38.5781 50.667 39.627L37.8188 68.7612L32.2833 57.0493C31.788 56.0296 30.7683 55.3886 29.6612 55.3886H14.5697C12.9673 55.3886 11.6562 56.6996 11.6562 58.302C11.6562 59.9044 12.9673 61.2155 14.5697 61.2155H27.7675L35.255 77.0354C35.7503 78.0551 36.77 78.696 37.8771 78.696H37.9062C39.0425 78.696 40.0622 77.9968 40.5283 76.948L53.3183 47.9594L58.5333 59.4965C58.9994 60.5454 60.0483 61.2155 61.1845 61.2155V61.1863Z" fill="white"/>
<path d="M84.4894 8.74028H67.0088C67.0088 7.1379 65.6978 5.82685 64.0954 5.82685H56.6953C55.6465 5.82685 54.7142 5.33157 54.3063 4.60321C52.7913 1.77719 49.8196 0 46.6148 0C43.4101 0 40.4384 1.77719 38.9234 4.60321C38.5155 5.33157 37.5832 5.82685 36.5344 5.82685H29.1343C27.5319 5.82685 26.2208 7.1379 26.2208 8.74028V23.3074C26.2208 24.9098 27.5319 26.2208 29.1343 26.2208H64.0954C65.6978 26.2208 67.0088 24.9098 67.0088 23.3074C67.0088 21.705 65.6978 20.394 64.0954 20.394H32.0477V11.6537H36.5344C39.7391 11.6537 42.6234 10.0222 44.051 7.37097C45.0707 5.47724 48.1589 5.47724 49.1786 7.37097C50.6062 10.0222 53.4905 11.6537 56.6953 11.6537H61.182C61.182 13.2561 62.493 14.5671 64.0954 14.5671H84.4894C86.0918 14.5671 87.4028 15.8782 87.4028 17.4806V119.451C87.4028 121.053 86.0918 122.364 84.4894 122.364H8.74028C7.1379 122.364 5.82685 121.053 5.82685 119.451V17.4806C5.82685 15.8782 7.1379 14.5671 8.74028 14.5671H14.5671C16.1695 14.5671 17.4806 13.2561 17.4806 11.6537C17.4806 10.0513 16.1695 8.74028 14.5671 8.74028H8.74028C3.93313 8.74028 0 12.6734 0 17.4806V119.451C0 124.258 3.93313 128.191 8.74028 128.191H84.4894C89.2965 128.191 93.2297 124.258 93.2297 119.451V17.4806C93.2297 12.6734 89.2965 8.74028 84.4894 8.74028Z" fill="white"/>
<path d="M55.3577 96.14C55.3577 94.5376 54.0466 93.2266 52.4442 93.2266H14.5697C12.9673 93.2266 11.6562 94.5376 11.6562 96.14C11.6562 97.7424 12.9673 99.0534 14.5697 99.0534H52.4442C54.0466 99.0534 55.3577 97.7424 55.3577 96.14Z" fill="white"/>
<path d="M14.5697 104.887C12.9673 104.887 11.6562 106.198 11.6562 107.8C11.6562 109.403 12.9673 110.714 14.5697 110.714H34.9637C36.566 110.714 37.8771 109.403 37.8771 107.8C37.8771 106.198 36.566 104.887 34.9637 104.887H14.5697Z" fill="white"/>
</svg>
