<svg width="22" height="31" viewBox="0 0 22 31" fill="none" xmlns="http://www.w3.org/2000/svg">
<path d="M14.4102 14.718H18.5273C18.9047 14.718 19.2135 14.4092 19.2135 14.0318C19.2135 13.6544 18.9047 13.3456 18.5273 13.3456H14.8562L13.182 9.63336C13.0722 9.38634 12.8251 9.22852 12.5575 9.22852C12.2899 9.22852 12.0429 9.3932 11.9331 9.64023L8.90704 16.5021L7.60329 13.7436C7.48664 13.5034 7.24647 13.3525 6.98573 13.3525H3.4313C3.0539 13.3525 2.74512 13.6613 2.74512 14.0387C2.74512 14.4161 3.0539 14.7248 3.4313 14.7248H6.53971L8.3032 18.4508C8.41985 18.691 8.66001 18.8419 8.92076 18.8419H8.92762C9.19523 18.8419 9.4354 18.6772 9.54519 18.4302L12.5575 11.6027L13.7858 14.32C13.8956 14.567 14.1426 14.7248 14.4102 14.7248V14.718Z" fill="currentColor"/>
<path d="M19.8993 2.36714H15.7822C15.7822 1.98974 15.4734 1.68096 15.096 1.68096H13.3531C13.1061 1.68096 12.8865 1.56431 12.7904 1.39276C12.4336 0.727165 11.7337 0.308594 10.9789 0.308594C10.2241 0.308594 9.52421 0.727165 9.1674 1.39276C9.07133 1.56431 8.85175 1.68096 8.60473 1.68096H6.86182C6.48442 1.68096 6.17564 1.98974 6.17564 2.36714V5.79805C6.17564 6.17545 6.48442 6.48424 6.86182 6.48424H15.096C15.4734 6.48424 15.7822 6.17545 15.7822 5.79805C15.7822 5.42065 15.4734 5.11187 15.096 5.11187H7.54801V3.05332H8.60473C9.35953 3.05332 10.0388 2.66906 10.3751 2.04464C10.6152 1.59862 11.3426 1.59862 11.5828 2.04464C11.919 2.66906 12.5983 3.05332 13.3531 3.05332H14.4098C14.4098 3.43072 14.7186 3.73951 15.096 3.73951H19.8993C20.2767 3.73951 20.5855 4.04829 20.5855 4.42569V28.4421C20.5855 28.8195 20.2767 29.1283 19.8993 29.1283H2.05855C1.68115 29.1283 1.37236 28.8195 1.37236 28.4421V4.42569C1.37236 4.04829 1.68115 3.73951 2.05855 3.73951H3.43091C3.80831 3.73951 4.11709 3.43072 4.11709 3.05332C4.11709 2.67592 3.80831 2.36714 3.43091 2.36714H2.05855C0.926346 2.36714 0 3.29349 0 4.42569V28.4421C0 29.5743 0.926346 30.5006 2.05855 30.5006H19.8993C21.0315 30.5006 21.9578 29.5743 21.9578 28.4421V4.42569C21.9578 3.29349 21.0315 2.36714 19.8993 2.36714Z" fill="currentColor"/>
<path d="M13.0379 22.9518C13.0379 22.5744 12.7291 22.2656 12.3517 22.2656H3.4313C3.0539 22.2656 2.74512 22.5744 2.74512 22.9518C2.74512 23.3292 3.0539 23.638 3.4313 23.638H12.3517C12.7291 23.638 13.0379 23.3292 13.0379 22.9518Z" fill="currentColor"/>
<path d="M3.4313 25.0117C3.0539 25.0117 2.74512 25.3205 2.74512 25.6979C2.74512 26.0753 3.0539 26.3841 3.4313 26.3841H8.23458C8.61198 26.3841 8.92076 26.0753 8.92076 25.6979C8.92076 25.3205 8.61198 25.0117 8.23458 25.0117H3.4313Z" fill="currentColor"/>
</svg>
